<svg width="54" height="54" viewBox="0 0 54 54" fill="none" xmlns="http://www.w3.org/2000/svg">
<path d="M45 17.9999L31.5 6.16489C30.2624 5.05799 28.6603 4.44604 27 4.44604C25.3397 4.44604 23.7376 5.05799 22.5 6.16489L9 17.9999C8.28533 18.6391 7.71502 19.4231 7.32706 20.2999C6.9391 21.1767 6.74238 22.1261 6.75 23.0849V42.7499C6.75 44.5401 7.46116 46.257 8.72703 47.5229C9.9929 48.7887 11.7098 49.4999 13.5 49.4999H40.5C42.2902 49.4999 44.0071 48.7887 45.273 47.5229C46.5388 46.257 47.25 44.5401 47.25 42.7499V23.0624C47.2544 22.1074 47.0562 21.1624 46.6683 20.2897C46.2804 19.417 45.7118 18.6365 45 17.9999ZM31.5 44.9999H22.5V33.7499C22.5 33.1532 22.7371 32.5809 23.159 32.1589C23.581 31.7369 24.1533 31.4999 24.75 31.4999H29.25C29.8467 31.4999 30.419 31.7369 30.841 32.1589C31.2629 32.5809 31.5 33.1532 31.5 33.7499V44.9999ZM42.75 42.7499C42.75 43.3466 42.5129 43.9189 42.091 44.3409C41.669 44.7628 41.0967 44.9999 40.5 44.9999H36V33.7499C36 31.9597 35.2888 30.2428 34.023 28.9769C32.7571 27.711 31.0402 26.9999 29.25 26.9999H24.75C22.9598 26.9999 21.2429 27.711 19.977 28.9769C18.7112 30.2428 18 31.9597 18 33.7499V44.9999H13.5C12.9033 44.9999 12.331 44.7628 11.909 44.3409C11.4871 43.9189 11.25 43.3466 11.25 42.7499V23.0624C11.2504 22.7429 11.3188 22.4272 11.4507 22.1362C11.5826 21.8453 11.775 21.5857 12.015 21.3749L25.515 9.56239C25.9256 9.20167 26.4535 9.00274 27 9.00274C27.5465 9.00274 28.0744 9.20167 28.485 9.56239L41.985 21.3749C42.225 21.5857 42.4174 21.8453 42.5493 22.1362C42.6812 22.4272 42.7496 22.7429 42.75 23.0624V42.7499Z" fill="black"/>
</svg>
