<svg width="54" height="54" viewBox="0 0 54 54" fill="none" xmlns="http://www.w3.org/2000/svg">
<path d="M34.9875 20.2501C35.2676 20.3568 35.5652 20.4102 35.865 20.4076H44.865C45.4617 20.4076 46.034 20.1706 46.456 19.7486C46.8779 19.3267 47.115 18.7544 47.115 18.1576C47.115 17.5609 46.8779 16.9886 46.456 16.5666C46.034 16.1447 45.4617 15.9076 44.865 15.9076H41.2875L48.69 8.50512C48.9255 8.30341 49.1168 8.05519 49.2519 7.77605C49.3869 7.4969 49.4628 7.19285 49.4748 6.88299C49.4867 6.57312 49.4345 6.26412 49.3214 5.97539C49.2083 5.68666 49.0367 5.42443 48.8174 5.20515C48.5982 4.98588 48.3359 4.8143 48.0472 4.70118C47.7585 4.58806 47.4495 4.53585 47.1396 4.54782C46.8297 4.55979 46.5257 4.63568 46.2466 4.77073C45.9674 4.90579 45.7192 5.09708 45.5175 5.33262L38.115 12.7126V9.13512C38.115 8.53838 37.8779 7.96608 37.456 7.54413C37.034 7.12217 36.4617 6.88512 35.865 6.88512C35.2682 6.88512 34.6959 7.12217 34.274 7.54413C33.852 7.96608 33.615 8.53838 33.615 9.13512V18.1351C33.6124 18.4349 33.6658 18.7325 33.7725 19.0126C33.8831 19.289 34.0474 19.5407 34.256 19.7531C34.4645 19.9656 34.7132 20.1345 34.9875 20.2501ZM43.74 29.2501C43.245 29.2501 42.7275 29.0926 42.2325 28.9801C41.2301 28.7592 40.245 28.466 39.285 28.1026C38.2412 27.7229 37.0938 27.7426 36.0637 28.158C35.0335 28.5734 34.1934 29.355 33.705 30.3526L33.21 31.3651C31.0185 30.146 29.0047 28.6319 27.225 26.8651C25.4582 25.0854 23.9441 23.0716 22.725 20.8801L23.67 20.2501C24.6676 19.7617 25.4492 18.9216 25.8646 17.8914C26.28 16.8613 26.2997 15.7139 25.92 14.6701C25.5627 13.7081 25.2696 12.7234 25.0425 11.7226C24.93 11.2276 24.84 10.7101 24.7725 10.1926C24.4993 8.60776 23.6691 7.17254 22.4316 6.1454C21.1941 5.11827 19.6305 4.56674 18.0225 4.59012H11.2725C10.3028 4.58101 9.34255 4.78095 8.45708 5.17631C7.57161 5.57167 6.78173 6.15318 6.1412 6.88125C5.50067 7.60932 5.02454 8.46685 4.74521 9.39547C4.46588 10.3241 4.38991 11.302 4.52248 12.2626C5.72114 21.6887 10.026 30.4468 16.7572 37.1535C23.4884 43.8603 32.2621 48.1333 41.6925 49.2976H42.5475C44.2067 49.3001 45.8086 48.6913 47.0475 47.5876C47.7593 46.951 48.3279 46.1705 48.7158 45.2978C49.1036 44.4252 49.3019 43.4801 49.2975 42.5251V35.7751C49.2699 34.2122 48.7008 32.7074 47.6872 31.5174C46.6737 30.3274 45.2786 29.526 43.74 29.2501ZM44.865 42.7501C44.8646 43.0696 44.7961 43.3853 44.6642 43.6763C44.5323 43.9672 44.34 44.2268 44.1 44.4376C43.8486 44.6547 43.5546 44.8168 43.2369 44.9137C42.9192 45.0106 42.5847 45.04 42.255 45.0001C33.8285 43.9197 26.0015 40.0647 20.0086 34.0433C14.0157 28.0218 10.1979 20.1766 9.15748 11.7451C9.12167 11.4155 9.15306 11.0821 9.24974 10.765C9.34642 10.4479 9.50639 10.1537 9.71998 9.90012C9.93083 9.66011 10.1904 9.46776 10.4813 9.33586C10.7723 9.20395 11.088 9.13552 11.4075 9.13512H18.1575C18.6807 9.12347 19.1916 9.2946 19.6023 9.61903C20.013 9.94346 20.2977 10.4009 20.4075 10.9126C20.4975 11.5276 20.61 12.1351 20.745 12.7351C21.0049 13.9212 21.3508 15.0868 21.78 16.2226L18.63 17.6851C18.3607 17.8087 18.1184 17.9842 17.9171 18.2017C17.7158 18.4192 17.5594 18.6743 17.457 18.9523C17.3546 19.2304 17.308 19.5259 17.3201 19.822C17.3322 20.1181 17.4027 20.4088 17.5275 20.6776C20.7657 27.6138 26.3413 33.1894 33.2775 36.4276C33.8253 36.6527 34.4397 36.6527 34.9875 36.4276C35.2681 36.3273 35.526 36.1721 35.7461 35.9713C35.9663 35.7704 36.1443 35.5279 36.27 35.2576L37.665 32.1076C38.8282 32.5236 40.0153 32.8692 41.22 33.1426C41.82 33.2776 42.4275 33.3901 43.0425 33.4801C43.5542 33.5899 44.0116 33.8746 44.3361 34.2853C44.6605 34.696 44.8316 35.2069 44.82 35.7301L44.865 42.7501Z" fill="black"/>
</svg>
