<svg width="48" height="48" viewBox="0 0 48 48" fill="none" xmlns="http://www.w3.org/2000/svg">
<path d="M0 16.1C0 10.4051 0 7.55764 1.12587 5.39026C2.07462 3.56382 3.56382 2.07462 5.39026 1.12587C7.55764 0 10.4051 0 16.1 0H31.9C37.5949 0 40.4424 0 42.6097 1.12587C44.4362 2.07462 45.9254 3.56382 46.8741 5.39026C48 7.55764 48 10.4051 48 16.1V31.9C48 37.5949 48 40.4424 46.8741 42.6097C45.9254 44.4362 44.4362 45.9254 42.6097 46.8741C40.4424 48 37.5949 48 31.9 48H16.1C10.4051 48 7.55764 48 5.39026 46.8741C3.56382 45.9254 2.07462 44.4362 1.12587 42.6097C0 40.4424 0 37.5949 0 31.9V16.1Z" fill="white"/>
<path d="M16.1 0.25H31.9C34.7516 0.25 36.8751 0.250201 38.557 0.389876C40.2359 0.529302 41.4524 0.806412 42.4945 1.34772C44.2753 2.27276 45.7272 3.72473 46.6523 5.5055C47.1936 6.54756 47.4707 7.76409 47.6101 9.443C47.7498 11.1249 47.75 13.2484 47.75 16.1V31.9C47.75 34.7516 47.7498 36.8751 47.6101 38.557C47.4707 40.2359 47.1936 41.4524 46.6523 42.4945C45.7272 44.2753 44.2753 45.7272 42.4945 46.6523C41.4524 47.1936 40.2359 47.4707 38.557 47.6101C36.8751 47.7498 34.7516 47.75 31.9 47.75H16.1C13.2484 47.75 11.1249 47.7498 9.443 47.6101C7.76409 47.4707 6.54756 47.1936 5.5055 46.6523C3.72473 45.7272 2.27276 44.2753 1.34772 42.4945C0.806412 41.4524 0.529302 40.2359 0.389876 38.557C0.250201 36.8751 0.25 34.7516 0.25 31.9V16.1C0.25 13.2484 0.250201 11.1249 0.389876 9.443C0.529302 7.76409 0.806412 6.54756 1.34772 5.5055C2.27276 3.72473 3.72473 2.27276 5.5055 1.34772C6.54756 0.806412 7.76409 0.529302 9.443 0.389876C11.1249 0.250201 13.2484 0.25 16.1 0.25Z" stroke="black" stroke-opacity="0.15" stroke-width="0.5"/>
<path fill-rule="evenodd" clip-rule="evenodd" d="M40.32 24.3865C40.32 23.181 40.2118 22.0219 40.0109 20.9092H24V27.4851H33.1491C32.755 29.6101 31.5573 31.4106 29.7568 32.616V36.8815H35.2509C38.4655 33.9219 40.32 29.5637 40.32 24.3865Z" fill="#4285F4"/>
<path fill-rule="evenodd" clip-rule="evenodd" d="M24.0004 41C28.5904 41 32.4386 39.4777 35.2514 36.8814L29.7573 32.6159C28.235 33.6359 26.2877 34.2386 24.0004 34.2386C19.5727 34.2386 15.825 31.2482 14.4881 27.23H8.80859V31.6345C11.6059 37.1905 17.355 41 24.0004 41Z" fill="#34A853"/>
<path fill-rule="evenodd" clip-rule="evenodd" d="M14.4877 27.23C14.1477 26.21 13.9546 25.1205 13.9546 24C13.9546 22.8796 14.1477 21.79 14.4877 20.77V16.3655H8.80818C7.65682 18.6605 7 21.2568 7 24C7 26.7432 7.65682 29.3396 8.80818 31.6346L14.4877 27.23Z" fill="#FBBC05"/>
<path fill-rule="evenodd" clip-rule="evenodd" d="M24.0004 13.7614C26.4963 13.7614 28.7373 14.6191 30.4991 16.3037L35.375 11.4277C32.4309 8.68455 28.5827 7 24.0004 7C17.355 7 11.6059 10.8096 8.80859 16.3655L14.4881 20.77C15.825 16.7518 19.5727 13.7614 24.0004 13.7614Z" fill="#EA4335"/>
</svg>
